<svg xmlns="http://www.w3.org/2000/svg" xmlns:xlink="http://www.w3.org/1999/xlink" viewBox="0 0 1248 592"><defs><style>.cls-1,.cls-20,.cls-21,.cls-22,.cls-23,.cls-24,.cls-25,.cls-26,.cls-27,.cls-28,.cls-29,.cls-30,.cls-31,.cls-32,.cls-33,.cls-34,.cls-35,.cls-36,.cls-37{fill:none;}.cls-2{fill:url(#linear-gradient);}.cls-3{isolation:isolate;}.cls-4{fill:url(#linear-gradient-2);}.cls-5{clip-path:url(#clip-path);}.cls-6{fill:url(#linear-gradient-3);}.cls-7{fill:url(#linear-gradient-4);}.cls-8{fill:url(#linear-gradient-5);}.cls-9{fill:url(#linear-gradient-6);}.cls-10{fill:url(#linear-gradient-7);}.cls-11{fill:url(#linear-gradient-8);}.cls-12{fill:url(#linear-gradient-9);}.cls-13{fill:url(#linear-gradient-10);}.cls-14{fill:url(#linear-gradient-11);}.cls-15{fill:url(#linear-gradient-12);}.cls-16{fill:url(#linear-gradient-13);}.cls-17{fill:url(#linear-gradient-14);}.cls-18{fill:url(#linear-gradient-15);}.cls-19,.cls-42{mix-blend-mode:overlay;}.cls-20,.cls-21,.cls-22,.cls-23,.cls-24,.cls-25,.cls-26,.cls-27,.cls-28,.cls-29,.cls-30,.cls-31,.cls-32,.cls-33,.cls-34,.cls-35,.cls-36,.cls-37{stroke:#fff;}.cls-20,.cls-21,.cls-22,.cls-23,.cls-24,.cls-25,.cls-26,.cls-27,.cls-28,.cls-29,.cls-30,.cls-31,.cls-32,.cls-33,.cls-34,.cls-35,.cls-36{stroke-miterlimit:10;}.cls-20{stroke-width:0.25px;}.cls-21{stroke-width:0.3px;}.cls-22{stroke-width:0.34px;}.cls-23{stroke-width:0.39px;}.cls-24{stroke-width:0.44px;}.cls-25{stroke-width:0.48px;}.cls-26{stroke-width:0.53px;}.cls-27{stroke-width:0.58px;}.cls-28{stroke-width:0.63px;}.cls-29{stroke-width:0.67px;}.cls-30{stroke-width:0.72px;}.cls-31{stroke-width:0.77px;}.cls-32{stroke-width:0.81px;}.cls-33{stroke-width:0.86px;}.cls-34{stroke-width:0.91px;}.cls-35{stroke-width:0.95px;}.cls-37{stroke-linecap:round;stroke-linejoin:round;}.cls-38{fill:#fff;}.cls-39{clip-path:url(#clip-path-2);}.cls-40{clip-path:url(#clip-path-3);}.cls-41{fill:url(#linear-gradient-17);}.cls-42{fill:#646464;}</style><linearGradient id="linear-gradient" x1="2065.6" y1="-440.15" x2="1773.64" y2="797.88" gradientUnits="userSpaceOnUse"><stop offset="0" stop-color="#ef3f45"/><stop offset="1" stop-color="#861619"/></linearGradient><linearGradient id="linear-gradient-2" x1="2069.39" y1="-677.23" x2="-747.92" y2="1219.76" gradientTransform="matrix(1, 0, 0, -1, 0, 592)" gradientUnits="userSpaceOnUse"><stop offset="0" stop-color="#f26c72"/><stop offset="0.33" stop-color="#ee2638"/><stop offset="0.66" stop-color="#690b13"/><stop offset="1" stop-color="#2e1012"/></linearGradient><clipPath id="clip-path"><rect class="cls-1" width="1248" height="592" transform="translate(1248 592) rotate(180)"/></clipPath><linearGradient id="linear-gradient-3" x1="2608.07" y1="889.65" x2="1740.09" y2="24.19" gradientTransform="matrix(-1, 0, 0, 1, 3121.43, 0)" xlink:href="#linear-gradient-2"/><linearGradient id="linear-gradient-4" x1="1500.63" y1="-459.06" x2="2492.37" y2="601.84" gradientTransform="matrix(-1, 0, 0, 1, 3121.43, 0)" xlink:href="#linear-gradient-2"/><linearGradient id="linear-gradient-5" x1="1795.71" y1="-191.15" x2="2435.12" y2="475.66" gradientTransform="matrix(-1, 0, 0, 1, 3121.43, 0)" xlink:href="#linear-gradient-2"/><linearGradient id="linear-gradient-6" x1="2406.73" y1="730.52" x2="1485.16" y2="-314.04" gradientTransform="matrix(-1, 0, 0, 1, 3121.43, 0)" xlink:href="#linear-gradient-2"/><linearGradient id="linear-gradient-7" x1="-1821.16" y1="307.47" x2="-829.42" y2="1368.37" gradientTransform="matrix(1, 0, 0, -1, 2417.22, 1322.9)" xlink:href="#linear-gradient-2"/><linearGradient id="linear-gradient-8" x1="-1381.79" y1="-186.6" x2="-390.05" y2="874.3" gradientTransform="matrix(1, 0, 0, -1, 1509.77, 817.7)" xlink:href="#linear-gradient-2"/><linearGradient id="linear-gradient-9" x1="1812.38" y1="-347.58" x2="2691.9" y2="627.2" gradientTransform="matrix(-1, 0, 0, 1, 3121.43, 0)" xlink:href="#linear-gradient-2"/><linearGradient id="linear-gradient-10" x1="1884.26" y1="36.98" x2="2868.22" y2="995.98" gradientTransform="matrix(-1, 0, 0, 1, 3121.43, 0)" xlink:href="#linear-gradient-2"/><linearGradient id="linear-gradient-11" x1="1722.91" y1="288.33" x2="2378.71" y2="992.93" gradientTransform="matrix(-1, 0, 0, 1, 3121.43, 0)" xlink:href="#linear-gradient-2"/><linearGradient id="linear-gradient-12" x1="2107.6" y1="800.38" x2="1596.76" y2="285.33" gradientTransform="matrix(-1, 0, 0, 1, 3121.43, 0)" xlink:href="#linear-gradient-2"/><linearGradient id="linear-gradient-13" x1="1607.69" y1="16.21" x2="2387.55" y2="843.23" gradientTransform="matrix(-1, 0, 0, 1, 3121.43, 0)" xlink:href="#linear-gradient-2"/><linearGradient id="linear-gradient-14" x1="2105.71" y1="-22.32" x2="3079.9" y2="931.99" gradientTransform="matrix(-1, 0, 0, 1, 3121.43, 0)" xlink:href="#linear-gradient-2"/><linearGradient id="linear-gradient-15" x1="2441.29" y1="264.1" x2="1992.21" y2="-232.7" gradientTransform="matrix(-1, 0, 0, 1, 3121.43, 0)" xlink:href="#linear-gradient-2"/><clipPath id="clip-path-2"><rect class="cls-1" x="1268" width="1248" height="592"/></clipPath><clipPath id="clip-path-3"><rect class="cls-2" x="1268.07" y="-60.53" width="1247.85" height="713.06"/></clipPath><linearGradient id="linear-gradient-17" x1="1591.97" y1="286.85" x2="1502.14" y2="-97.75" gradientUnits="userSpaceOnUse"><stop offset="0" stop-color="#ef4045"/><stop offset="1" stop-color="#ef3a44"/></linearGradient></defs><g class="cls-3"><g id="Layer_1" data-name="Layer 1"><rect class="cls-4" width="1248" height="592" transform="translate(1248 592) rotate(180)"/><g class="cls-5"><path class="cls-6" d="M939.76,440.12,622.6,757.28a16.94,16.94,0,0,0,0,24h0a16.94,16.94,0,0,0,23.95,0L963.71,464.07a16.94,16.94,0,0,0,0-23.95h0A16.94,16.94,0,0,0,939.76,440.12Z"/><path class="cls-7" d="M1099.87,158.47l319.22-319.21a48.8,48.8,0,0,0,0-69h0a48.8,48.8,0,0,0-69,0L1030.87,89.48a48.79,48.79,0,0,0,0,69h0A48.78,48.78,0,0,0,1099.87,158.47Z"/><path class="cls-8" d="M955,213.08,1272.2-104.07a16.94,16.94,0,0,0,0-24h0a16.92,16.92,0,0,0-24,0L931.09,189.13a16.94,16.94,0,0,0,0,24h0A16.92,16.92,0,0,0,955,213.08Z"/><path class="cls-9" d="M1053.39,398.93,1372.61,79.71a48.78,48.78,0,0,0,0-69h0a48.79,48.79,0,0,0-69,0L984.4,329.93a48.8,48.8,0,0,0,0,69h0A48.79,48.79,0,0,0,1053.39,398.93Z"/><path class="cls-10" d="M1117,397.89,797.77,717.11a48.8,48.8,0,0,0,0,69h0a48.8,48.8,0,0,0,69,0L1186,466.89a48.8,48.8,0,0,0,0-69h0A48.8,48.8,0,0,0,1117,397.89Z"/><path class="cls-11" d="M648.92,386.76,329.7,706a48.79,48.79,0,0,0,0,69h0a48.78,48.78,0,0,0,69,0L717.92,455.75a48.79,48.79,0,0,0,0-69h0A48.8,48.8,0,0,0,648.92,386.76Z"/><path class="cls-12" d="M890.12,243.92,1099.79,34.26a93,93,0,0,0,0-131.44h0a92.94,92.94,0,0,0-131.44,0L758.68,112.49a92.94,92.94,0,0,0,0,131.43h0A92.94,92.94,0,0,0,890.12,243.92Z"/><path class="cls-13" d="M760.89,368.75,551.22,578.42a92.94,92.94,0,0,0,0,131.43h0a92.94,92.94,0,0,0,131.44,0L892.33,500.18a92.92,92.92,0,0,0,0-131.43h0A92.94,92.94,0,0,0,760.89,368.75Z"/><path class="cls-14" d="M978.39,868.26l209.67-209.67a93,93,0,0,0,0-131.44h0a93,93,0,0,0-131.44,0L847,736.82a92.94,92.94,0,0,0,0,131.44h0A93,93,0,0,0,978.39,868.26Z"/><path class="cls-15" d="M1358.88,321.37,1149.21,531a93,93,0,0,0,0,131.44h0a93,93,0,0,0,131.44,0l209.67-209.67a93,93,0,0,0,0-131.44h0A93,93,0,0,0,1358.88,321.37Z"/><path class="cls-16" d="M1163.16,403.07,1480.32,85.92a16.94,16.94,0,0,0,0-24h0a16.92,16.92,0,0,0-24,0L1139.21,379.12a16.94,16.94,0,0,0,0,23.95h0A16.92,16.92,0,0,0,1163.16,403.07Z"/><path class="cls-17" d="M642.21,316.63,325.06,633.78a16.92,16.92,0,0,0,0,24h0a16.92,16.92,0,0,0,23.95,0L666.16,340.58a16.92,16.92,0,0,0,0-23.95h0A16.92,16.92,0,0,0,642.21,316.63Z"/><path class="cls-18" d="M914.49,60.55l319.22-319.22a48.79,48.79,0,0,0,0-69h0a48.77,48.77,0,0,0-69,0L845.5-8.44a48.77,48.77,0,0,0,0,69h0A48.79,48.79,0,0,0,914.49,60.55Z"/><g class="cls-19"><path class="cls-20" d="M1276-144.61c34.36,73.74,63.51,161.48,60.63,244-2.07,59.09-30.87,116.16-87.67,138-72.83,27.95-158.18,2-228.06-22.75-64.68-22.92-129.22-50-197.58-55s-143.27,16.78-182.55,73.57c-23.89,34.55-32,78.6-28,120.56s19.58,82.06,39.51,119.09c22.61,42,52,84.1,51.07,131.93-.78,41-25.37,79.47-59.39,101.78s-76.3,29.57-116.66,25.57"/><path class="cls-21" d="M523.74,728c39.84,4,81.5-2.63,115.4-23.56,22.37-13.79,40.89-34.26,51.68-57.81a110.45,110.45,0,0,0,10-38.52c3.12-45.63-22.34-86.45-42.22-127.8q-3.8-7.91-7.36-16c-14-32-24.78-66.16-28-101.6-3.73-41.4,3.68-84.83,26.08-119.3,19.06-29.32,47.23-49.81,79.35-62.51A223.62,223.62,0,0,1,797.38,166a235.81,235.81,0,0,1,27.37-.05c40.78,2.28,80.49,13.34,119.46,26.26,25.42,8.42,50.65,17.63,75.9,26.08,22.7,7.57,46.93,15.12,71.76,20.79,51.1,11.68,104.65,15.28,152-4.49,54.57-22.78,82-78.92,83.45-136.92A341,341,0,0,0,1326,58.12c-6.31-68.87-31.87-138.72-61.14-199"/><path class="cls-22" d="M520.13,723.92c39.32,3.92,80.37-2,114.16-21.55,22.3-12.87,41-32.09,52.5-54.35a108.58,108.58,0,0,0,11.45-36.52c5.33-43.44-16.23-83-33.37-123.69Q661.58,480,658.5,472c-12.11-31.66-21.89-65.38-24.79-100.35-3.4-40.85,3.28-83.65,24.19-118,17.79-29.24,44.26-50.22,74.93-63.84a208.07,208.07,0,0,1,66.44-16.88,214,214,0,0,1,26.89-.63c40.16,1.55,79.57,12.54,118,25,25.13,8.12,50.14,16.86,75.14,24.72,22.53,7,46.49,13.91,71,18.85,50.37,10.13,102.8,11.76,148.54-9,52.36-23.74,78.34-79,79.25-135.87a330.94,330.94,0,0,0-1.75-38.83c-6.93-67.55-32.91-135.57-62.65-194.22"/><path class="cls-23" d="M516.53,719.8c38.8,3.88,79.22-1.38,112.9-19.53,22.25-12,41.14-29.92,53.32-50.89a107.61,107.61,0,0,0,12.92-34.53c7.53-41.24-10.12-79.55-24.53-119.58-1.84-5.1-3.65-10.28-5.38-15.54-10.31-31.27-19-64.59-21.6-99.11-3.06-40.29,2.88-82.46,22.3-116.79C683,234.66,707.75,213.2,737,198.67a192.87,192.87,0,0,1,64.19-18.87,196.51,196.51,0,0,1,26.42-1.21c39.53.83,78.64,11.75,116.57,23.72,24.85,7.82,49.62,16.09,74.37,23.36,22.37,6.52,46,12.71,70.17,16.9,49.64,8.6,101,8.26,145.06-13.47,50.14-24.68,74.71-79,75-134.81a322.81,322.81,0,0,0-2.11-38.08c-7.57-66.24-34-132.44-64.17-189.49"/><path class="cls-24" d="M512.92,715.68c38.29,3.84,78.09-.76,111.65-17.52,22.19-11,41.28-27.75,54.14-47.42a107,107,0,0,0,14.38-32.55c9.74-39-4-76.09-15.68-115.46-1.49-5-3-10.12-4.39-15.31-8.47-30.88-16.08-63.79-18.41-97.85C651.88,349.82,657.09,308.29,675,274c15.25-29.09,38.31-51,66.09-66.49A179.64,179.64,0,0,1,829,184.9c38.91.1,77.72,10.95,115.13,22.45,24.57,7.52,49.1,15.33,73.61,22,22.2,6,45.6,11.5,69.36,14.94,48.92,7.06,99.1,4.77,141.59-18,47.91-25.62,71.07-79,70.82-133.76A314.67,314.67,0,0,0,1297,55.26c-8.2-64.93-35-129.3-65.68-184.77"/><path class="cls-25" d="M509.32,711.56c37.76,3.8,76.95-.14,110.39-15.51,22.13-10.13,41.41-25.57,55-43.95a108,108,0,0,0,15.85-30.56c12-36.85,2.12-72.64-6.83-111.35-1.14-4.93-2.3-9.95-3.41-15.07-6.62-30.51-13.18-63-15.22-96.61-2.39-39.19,2.08-80.1,18.52-114.28,14-29,35.34-51.45,61.66-67.82a165.29,165.29,0,0,1,85.17-25.2c38.28-.63,76.79,10.15,113.67,21.18,24.3,7.23,48.59,14.56,72.85,20.65,22,5.46,45.17,10.3,68.57,13,48.2,5.52,97.25,1.29,138.11-22.44,45.69-26.53,67.43-79.08,66.6-132.7a304.74,304.74,0,0,0-2.86-36.59c-8.83-63.61-36-126.15-67.19-180"/><path class="cls-26" d="M505.71,707.44c37.25,3.76,75.82.49,109.15-13.5,22.07-9.22,41.54-23.4,55.77-40.49a109.42,109.42,0,0,0,17.31-28.56c14.16-34.66,8.24-69.19,2-107.24-.79-4.84-1.62-9.79-2.42-14.83-4.77-30.13-10.28-62.22-12-95.36-2.06-38.64,1.68-78.92,16.63-113a163.06,163.06,0,0,1,57.24-69.15,154.19,154.19,0,0,1,57.44-24.79,151.08,151.08,0,0,1,25-3c37.66-1.36,75.87,9.36,112.23,19.91,24,6.93,48.07,13.79,72.09,19.3,21.86,4.92,44.72,9.08,67.76,11,47.48,4,95.41-2.17,134.64-26.92,43.47-27.43,63.8-79.12,62.39-131.66a294.42,294.42,0,0,0-3.24-35.83c-9.46-62.3-37.09-123-68.7-175.3"/><path class="cls-27" d="M502.11,703.32c36.72,3.72,74.68,1.11,107.89-11.49,22-8.3,41.67-21.22,56.6-37a113,113,0,0,0,18.77-26.58c16.36-32.45,14.35-65.73,10.86-103.11-.44-4.77-.94-9.63-1.43-14.6-2.92-29.76-7.38-61.43-8.84-94.12-1.72-38.09,1.28-77.73,14.73-111.77a164.9,164.9,0,0,1,52.83-70.48,144.06,144.06,0,0,1,55.19-26.77,140.17,140.17,0,0,1,24.53-3.54c37-2.1,74.94,8.55,110.78,18.63,23.73,6.63,47.55,13,71.32,17.94,21.7,4.4,44.28,7.88,67,9.08,46.75,2.45,93.56-5.62,131.16-31.41,41.26-28.3,60.16-79.16,58.18-130.6A288.59,288.59,0,0,0,1268,52.39c-10.09-61-38.15-119.87-70.22-170.57"/><path class="cls-28" d="M498.5,699.2c36.21,3.68,73.54,1.73,106.64-9.47,22-7.39,41.8-19.06,57.42-33.56a117.77,117.77,0,0,0,20.23-24.59c18.57-30.26,20.47-62.28,19.72-99-.1-4.68-.27-9.47-.44-14.36-1.07-29.4-4.48-60.64-5.66-92.88-1.39-37.53.88-76.54,12.84-110.51C719.43,286,735.68,262.15,757.66,243a134.23,134.23,0,0,1,52.93-28.75,129.82,129.82,0,0,1,24.06-4.12c36.41-2.82,74,7.76,109.34,17.36,23.45,6.33,47,12.31,70.56,16.58a418.23,418.23,0,0,0,66.17,7.13c46,.91,91.72-9.05,127.67-35.89,39.07-29.17,56.54-79.21,54-129.55a278.45,278.45,0,0,0-4-34.34c-10.72-59.66-39.19-116.74-71.73-165.84"/><path class="cls-29" d="M494.9,695.08c35.69,3.64,72.4,2.36,105.38-7.46,21.9-6.47,42-16.85,58.24-30.09a124.23,124.23,0,0,0,21.7-22.6C701,606.86,706.8,576.1,708.78,540c.25-4.6.42-9.3.55-14.13.79-29-1.58-59.84-2.47-91.62-1.05-37,.48-75.37,10.95-109.26,8.91-28.71,23.46-53.09,44-73.14,13.83-13.55,31-24.67,50.69-30.72a120.24,120.24,0,0,1,23.59-4.71c35.78-3.55,73.08,7,107.89,16.09,23.17,6,46.51,11.54,69.79,15.23a387.46,387.46,0,0,0,65.37,5.17c45.3-.63,89.9-12.46,124.2-40.38,36.87-30,52.9-79.24,49.76-128.49a268.41,268.41,0,0,0-4.36-33.59c-11.35-58.35-40.23-113.6-73.24-161.12"/><path class="cls-30" d="M491.29,691c35.17,3.6,71.27,3,104.13-5.46a181,181,0,0,0,59.06-26.63,134.29,134.29,0,0,0,23.17-20.61c23-25.86,32.69-55.37,37.41-90.77.6-4.51,1.09-9.14,1.53-13.89,2.66-28.65,1.32-59.06.72-90.38-.72-36.42.08-74.18,9.06-108,7.64-28.63,20.49-53.48,39.56-74.46,12.85-14.18,29.23-26.07,48.44-32.7a112.68,112.68,0,0,1,23.11-5.29c35.16-4.28,72.16,6.17,106.45,14.82,22.89,5.73,46,10.72,69,13.87,21.2,2.81,43,4.26,64.57,3.22,44.57-2.16,88.09-15.86,120.72-44.86,34.7-30.83,49.27-79.29,45.54-127.44a260.39,260.39,0,0,0-4.72-32.85c-12-57-41.28-110.45-74.76-156.38"/><path class="cls-31" d="M487.69,686.85c34.65,3.56,70.13,3.59,102.88-3.45a195.65,195.65,0,0,0,59.87-23.16,145.62,145.62,0,0,0,24.63-18.62C700.26,618,713.89,589.7,721.33,555c.95-4.42,1.77-9,2.52-13.65,4.53-28.28,4.22-58.27,3.91-89.13-.38-35.88-.32-73,7.17-106.76,6.37-28.55,17.52-53.89,35.14-75.79,11.88-14.8,27.47-27.47,46.19-34.68a105,105,0,0,1,22.64-5.87c34.53-5,71.23,5.37,105,13.55,22.61,5.44,45.49,10,68.27,12.51a332.86,332.86,0,0,0,63.77,1.27c43.86-3.7,86.3-19.24,117.25-49.35,32.53-31.64,45.63-79.32,41.33-126.39a252.38,252.38,0,0,0-5.1-32.09c-12.62-55.72-42.33-107.32-76.27-151.65"/><path class="cls-32" d="M484.08,682.73c34.13,3.52,69,4.22,101.63-1.44a214.33,214.33,0,0,0,60.7-19.69A160.4,160.4,0,0,0,672.5,645c27.39-21.48,44.93-48.47,55.1-82.55,1.3-4.34,2.46-8.81,3.51-13.41,6.41-27.91,7.13-57.48,7.1-87.89-.05-35.32-.72-71.81,5.28-105.5,5.1-28.48,14.54-54.3,30.72-77.12,10.91-15.43,25.69-28.91,43.94-36.65a97,97,0,0,1,22.16-6.46c33.91-5.74,70.31,4.57,103.55,12.28a494.2,494.2,0,0,0,67.51,11.16,309.7,309.7,0,0,0,63-.68c43.13-5.25,84.51-22.62,113.77-53.84,30.39-32.44,42-79.37,37.12-125.34a244.73,244.73,0,0,0-5.48-31.35C1206.51-6.78,1176.38-56.55,1142-99.3"/><path class="cls-33" d="M480.48,678.61c33.61,3.48,67.85,4.84,100.37.57A236.91,236.91,0,0,0,642.37,663a176,176,0,0,0,27.55-14.65c29.61-19.27,51.05-45,64-78.42q2.46-6.39,4.49-13.18c8.29-27.54,10-56.69,10.29-86.64.29-34.77-1.12-70.64,3.39-104.25,3.83-28.4,11.57-54.71,26.29-78.45,9.94-16.05,23.94-30.31,41.69-38.63a92,92,0,0,1,21.7-7c33.28-6.46,69.38,3.78,102.1,11a439.25,439.25,0,0,0,66.74,9.8,287.55,287.55,0,0,0,62.18-2.63c42.4-6.79,82.75-26,110.28-58.33,28.28-33.22,38.37-79.4,32.91-124.28a233.28,233.28,0,0,0-5.85-30.6c-13.87-53.09-44.41-101-79.29-142.19"/><path class="cls-34" d="M476.87,674.49c33.1,3.44,66.72,5.46,99.12,2.59a264.33,264.33,0,0,0,62.34-12.77,194.82,194.82,0,0,0,29-12.65c31.81-17.08,57.16-41.56,72.8-74.31q3-6.26,5.49-12.94c10.22-27.14,12.92-55.9,13.46-85.4.63-34.22-1.51-69.45,1.5-103,2.57-28.32,8.61-55.12,21.88-79.78,9-16.68,22.17-31.71,39.44-40.6A86.2,86.2,0,0,1,843.15,248c32.64-7.19,68.45,3,100.65,9.74a393.47,393.47,0,0,0,66,8.45,268.14,268.14,0,0,0,61.37-4.59c41.68-8.32,81-29.32,106.81-62.81,26.18-34,34.73-79.45,28.7-123.23a227.05,227.05,0,0,0-6.22-29.86C1185.93-6.06,1155-52.18,1119.63-91.75"/><path class="cls-35" d="M473.27,670.37c32.57,3.4,65.58,6.09,97.87,4.6a296.59,296.59,0,0,0,63.15-9.3A213.16,213.16,0,0,0,664.77,655c34-14.89,63.28-38.11,81.66-70.2q3.51-6.13,6.47-12.71C765,545.35,768.72,517,769.55,488c1-33.66-1.91-68.26-.39-101.73,1.3-28.25,5.64-55.53,17.46-81.11,8-17.3,20.41-33.11,37.19-42.58a81.62,81.62,0,0,1,20.75-8.2c32-7.93,67.53,2.18,99.21,8.46a354.9,354.9,0,0,0,65.21,7.09,249.92,249.92,0,0,0,60.58-6.54c41-9.86,79.32-32.66,103.33-67.3s31.1-79.48,24.48-122.17a217.49,217.49,0,0,0-6.59-29.11C1175.64-5.7,1144.27-50,1108.46-88"/><path class="cls-36" d="M469.66,666.25c53.46,5.61,107.85,11.17,160.59.78s104.58-39.31,129.91-87.23C803.89,497.08,757.48,399,790.76,314c7-17.94,18.65-34.52,34.94-44.57,35.83-22.11,79.95-8.69,118-1.59,41.09,7.65,84,8.64,124.22-2.76s77.65-36,99.86-71.78C1195,149.53,1196.89,93,1181.12,43.81s-47.55-91.62-83.83-128"/></g><g class="cls-19"><path class="cls-20" d="M-255.82,384.28c59.15,55.84,133.24,111.16,212.47,134.43,56.73,16.66,120,7.3,158.56-39.73C164.69,418.67,167,329.5,165.49,255.37c-1.37-68.6-6.73-138.39,10.09-204.83S236.65-80.15,302.93-99.53c40.31-11.78,84.69-5.63,123.23,11.44s71.71,44.45,100.58,75c32.75,34.7,63.43,75.83,109.11,90,39.15,12.18,83.41,1,115.31-24.28s52.1-63.1,61-102.66"/><path class="cls-21" d="M809.41-54.69c-9.08,40.37-28.76,79.18-60.32,105.78S673.27,90.8,633.25,79.85C587,67.2,555.15,27.1,521.37-6.58c-29.55-29.59-64-55.93-102.58-71.23-37.73-15-80.18-19.63-118.7-7.36-62.68,20-104.58,81.39-120.63,145.23-16.22,64.75-11.77,132.68-11.9,199.1-.08,71.65-4.09,157.27-53.36,214.14-39,45.07-101.95,52.47-157.79,35.09-76.82-23.92-148.23-78.3-205.13-133.52"/><path class="cls-22" d="M806.64-59.41c-9.25,41.18-28.41,81-59.63,108.91S671.54,92.44,630.65,82.72C583.92,71.62,550.73,32.63,516-.09,485.7-28.64,450.07-54,411.43-67.53c-36.9-12.91-77.44-16-114.18-3.29C238.17-50.32,198.62,8.35,183.34,69.59c-15.62,63-12.07,129.12-13.72,193.35-1.64,69.18-7.42,151.24-56.44,204.68-39.54,43.1-102.06,48.56-157,30.45-74.42-24.54-143.15-78-197.8-132.61"/><path class="cls-23" d="M803.86-64.13c-9.41,42-28,82.74-58.93,112S669.83,94.07,628,85.6C580.81,76,546.37,38.12,510.64,6.4c-31-27.54-67.82-51.94-106.58-63.66-36-10.88-74.68-12.46-109.65.79-55.47,21-92.68,76.94-107.2,135.58-15,61.35-12.36,125.58-15.52,187.62-3.2,66.71-10.8,145.18-59.52,195.2C72.1,503.07,10,506.61-44.06,487.75c-72-25.13-138.06-77.72-190.45-131.7"/><path class="cls-24" d="M801.09-68.85C791.52-26,773.4,15.67,742.86,46.31S668.12,95.68,625.44,88.47C577.71,80.41,542,43.61,505.27,12.89,473.55-13.64,435.63-37.1,396.69-47c-35.07-8.9-71.91-8.91-105.12,4.87C239.72-20.61,204.84,32.6,191.09,88.63c-14.41,59.66-12.66,122-17.34,181.88-4.76,64.24-14.23,139.1-62.6,185.74C70.53,495.42,8.86,497.05-44.29,477.43c-69.61-25.7-133-77.44-183.12-130.79"/><path class="cls-25" d="M798.32-73.57C788.58-30,771,12.73,740.78,44.71S666.42,97.28,622.84,91.35c-48.23-6.57-85.2-42.26-122.93-72C467.48-6.15,428.48-28.69,389.32-36.7c-34.1-7-69.13-5.38-100.59,8.94C240.51-5.82,207.83,44.69,195,98.15,181,156.09,181.86,216.62,175.82,274.3c-6.47,61.75-17.71,133-65.69,176.27C68.91,487.76,7.72,487.51-44.53,467.11-111.74,440.86-172.42,390-220.31,337.23"/><path class="cls-26" d="M795.54-78.29c-9.89,44.41-27,88.08-56.83,121.41s-74,55.75-118.47,51.1c-48.72-5.08-87-39.65-125.7-68.35C461.42,1.34,421.37-20.33,382-26.42c-33.1-5.12-66.35-1.87-96.07,13-44.6,22.34-75,70.22-87,121.08-13.36,56.24-13.43,114.91-21,170.41-8,59.28-21.25,126.87-68.76,166.81C67.26,480.07,6.59,478-44.76,456.79c-64.82-26.76-122.81-76.86-168.44-129"/><path class="cls-27" d="M792.77-83C782.71-37.79,766.16,6.85,736.63,41.52S663,100.44,617.64,97.1C568.43,93.48,528.94,60,489.17,32.36,455.36,8.82,414.29-12,374.59-16.15,342.53-19.46,311-14.54,283.05.94c-41,22.68-69,68-80.33,116.26C190,171.73,189,228.55,180,281.86c-9.63,56.8-24.84,120.7-71.85,157.35C65.57,472.36,5.45,468.49-45,446.47c-62.43-27.25-117.72-76.58-161.1-128.07"/><path class="cls-28" d="M790-87.73c-10.23,46-26.25,91.64-55.45,127.66S661.33,102,615,100C565.35,97.8,524.6,65.51,483.8,38.84,449.3,16.3,406.67,1.17,367.22-5.87c-30.55-5.46-60.77,5.06-87,21.17-37.36,22.94-63.08,65.76-73.61,111.42-12.18,52.84-14,107.79-24.59,158.93C170.82,340,153.54,400.13,107.08,433.53,63.84,464.62,4.3,459-45.23,436.15-105.29,408.44-157.87,359.86-199,309"/><path class="cls-29" d="M787.22-92.45C776.84-45.61,761.33,1,732.48,38.34s-72.84,65.21-120,64.51c-50.18-.74-92.18-31.88-134-57.52C443.25,23.77,399.88,9.44,359.85,4.41c-29.7-3.74-58,8.46-82.48,25.24C243.6,52.8,220.24,93.18,210.48,136.24c-11.59,51.15-14.35,104.24-26.4,153.19-12.76,51.84-32.17,108.21-78,138.42-44,29-102.93,21.7-151.54-2-57.69-28.15-107.55-76-146.43-126.25"/><path class="cls-30" d="M784.45-97.17C773.9-49.52,758.92-2,730.4,36.74s-72.46,68.34-120.56,69c-50.67.68-93.91-29.31-136.77-53.91-35.87-20.59-79.94-34.4-120.58-37.14-28.85-1.94-55.24,11.82-78,29.32-30.21,23.28-51.18,61.31-60.17,101.76-11,49.45-14.65,100.68-28.21,147.46-14.32,49.36-35.9,101.88-81.1,128.94C60.25,449,2,440.11-45.7,415.51-101,387-148.17,339.8-184.79,290.17"/><path class="cls-31" d="M781.68-101.89c-10.71,48.46-25.18,97-53.35,137S656.24,106.6,607.24,108.6c-51.16,2.09-95.64-26.73-139.54-50.29-36.54-19.62-81.6-38-122.58-33.35-27.82,3.17-52.51,15.11-73.43,33.4-26.7,23.33-45.22,59.08-53.46,96.92C207.84,203,203.3,252.41,188.21,297c-15.86,46.89-39.66,95.48-84.18,119.48C58.4,441.09.79,430.7-45.94,405.19c-53-28.93-97.38-75.43-131.75-124.43"/><path class="cls-32" d="M778.9-106.6C768-57.34,754.09-7.85,726.25,33.55s-71.71,74.56-121.62,77.93C553,115,507.27,87.3,462.34,64.8,425.11,46.15,379,28.12,337.75,35.24c-26.79,4.62-49.83,18.35-68.9,37.47-23.25,23.32-39.26,56.85-46.74,92.1-9.78,46.06-15.21,93.57-31.83,136-17.41,44.41-43.46,89-87.26,110C56.51,433.1-.4,421.31-46.17,394.88c-50.7-29.29-92.3-75.15-124.42-123.53"/><path class="cls-33" d="M776.13-111.32c-11,50.07-24.45,100.53-52,143.28S652.83,109.6,602,114.35C549.89,119.22,502.94,92.74,457,71.29c-37.9-17.69-85.12-35.46-126.58-25.78-25.8,6-47.25,21.55-64.38,41.55-19.9,23.24-33.29,54.63-40,87.27-9.16,44.37-15.49,90-33.65,130.24C173.4,346.52,145.08,387,102,405.12,54.6,425-1.62,412-46.4,384.56c-48.41-29.62-87.22-74.86-117.08-122.62"/><path class="cls-34" d="M773.36-116c-11.2,50.88-24.1,102.31-51.26,146.4s-71,80.73-122.67,86.87c-52.64,6.25-100.78-19.16-147.83-39.46-38.54-16.8-87-34.34-128.58-22-24.86,7.39-44.76,24.68-59.85,45.62-16.65,23.12-27.31,52.42-33.3,82.44-8.53,42.69-15.76,86.49-35.46,124.51-20.47,39.48-51.08,75.84-93.43,91.08-48.3,17.38-103.84,3.18-147.62-25.2-46.13-29.92-82.13-74.58-109.74-121.71"/><path class="cls-35" d="M770.58-120.76C759.22-69.07,746.85-16.67,720,28.77S649.4,112.48,596.83,120.1c-53.16,7.53-102.53-16.57-150.59-35.84C407,68.44,357.3,50.93,315.65,66.07c-24,8.71-42.41,27.77-55.32,49.7-13.53,23-21.28,50.2-26.59,77.6-7.8,41-16,83-37.27,118.77-21.93,37.06-54.87,69.13-96.5,81.62-49.21,14.75-104.11-.44-146.84-29.84-43.89-30.2-77.05-74.29-102.41-120.8"/><path class="cls-36" d="M767.81-125.48C756.29-73,744.43-19.61,718,27.17S647.69,114,594.23,123C540.57,132,490,109,440.87,90.75c-39.93-14.84-91-32.41-132.59-14.4-23.14,10-40.23,30.87-50.79,53.77s-15.33,48-19.87,72.78c-7.2,39.32-16.26,79.43-39.08,113C175,350.52,139.91,378.27,99,388.08c-50.09,12-104.39-4-146.06-34.48s-72-74-95.06-119.89"/></g></g><line class="cls-37" x1="1204.13" y1="504.6" x2="1204.13" y2="509.33"/><line class="cls-37" x1="1201.76" y1="506.97" x2="1206.49" y2="506.97"/><line class="cls-37" x1="1187.05" y1="504.6" x2="1187.05" y2="509.33"/><line class="cls-37" x1="1184.68" y1="506.97" x2="1189.41" y2="506.97"/><line class="cls-37" x1="1169.97" y1="504.6" x2="1169.97" y2="509.33"/><line class="cls-37" x1="1167.6" y1="506.97" x2="1172.33" y2="506.97"/><line class="cls-37" x1="1152.88" y1="504.6" x2="1152.88" y2="509.33"/><line class="cls-37" x1="1150.52" y1="506.97" x2="1155.25" y2="506.97"/><line class="cls-37" x1="1204.13" y1="521.28" x2="1204.13" y2="526.01"/><line class="cls-37" x1="1201.76" y1="523.65" x2="1206.49" y2="523.65"/><line class="cls-37" x1="1187.05" y1="521.28" x2="1187.05" y2="526.01"/><line class="cls-37" x1="1184.68" y1="523.65" x2="1189.41" y2="523.65"/><line class="cls-37" x1="1169.97" y1="521.28" x2="1169.97" y2="526.01"/><line class="cls-37" x1="1167.6" y1="523.65" x2="1172.33" y2="523.65"/><line class="cls-37" x1="1152.88" y1="521.28" x2="1152.88" y2="526.01"/><line class="cls-37" x1="1150.52" y1="523.65" x2="1155.25" y2="523.65"/><line class="cls-37" x1="1204.13" y1="537.97" x2="1204.13" y2="542.69"/><line class="cls-37" x1="1201.76" y1="540.33" x2="1206.49" y2="540.33"/><line class="cls-37" x1="1187.05" y1="537.97" x2="1187.05" y2="542.69"/><line class="cls-37" x1="1184.68" y1="540.33" x2="1189.41" y2="540.33"/><line class="cls-37" x1="1169.97" y1="537.97" x2="1169.97" y2="542.69"/><line class="cls-37" x1="1167.6" y1="540.33" x2="1172.33" y2="540.33"/><line class="cls-37" x1="1152.88" y1="537.97" x2="1152.88" y2="542.69"/><line class="cls-37" x1="1150.52" y1="540.33" x2="1155.25" y2="540.33"/><line class="cls-37" x1="1204.13" y1="554.65" x2="1204.13" y2="559.38"/><line class="cls-37" x1="1201.76" y1="557.01" x2="1206.49" y2="557.01"/><line class="cls-37" x1="1187.05" y1="554.65" x2="1187.05" y2="559.38"/><line class="cls-37" x1="1184.68" y1="557.01" x2="1189.41" y2="557.01"/><line class="cls-37" x1="1169.97" y1="554.65" x2="1169.97" y2="559.38"/><line class="cls-37" x1="1167.6" y1="557.01" x2="1172.33" y2="557.01"/><line class="cls-37" x1="1152.88" y1="554.65" x2="1152.88" y2="559.38"/><line class="cls-37" x1="1150.52" y1="557.01" x2="1155.25" y2="557.01"/><line class="cls-37" x1="737.18" y1="104.28" x2="737.18" y2="109.01"/><line class="cls-37" x1="734.82" y1="106.65" x2="739.55" y2="106.65"/><line class="cls-37" x1="720.1" y1="104.28" x2="720.1" y2="109.01"/><line class="cls-37" x1="717.74" y1="106.65" x2="722.47" y2="106.65"/><line class="cls-37" x1="703.02" y1="104.28" x2="703.02" y2="109.01"/><line class="cls-37" x1="700.66" y1="106.65" x2="705.39" y2="106.65"/><line class="cls-37" x1="685.94" y1="104.28" x2="685.94" y2="109.01"/><line class="cls-37" x1="683.58" y1="106.65" x2="688.3" y2="106.65"/><line class="cls-37" x1="737.18" y1="120.96" x2="737.18" y2="125.69"/><line class="cls-37" x1="734.82" y1="123.33" x2="739.55" y2="123.33"/><line class="cls-37" x1="720.1" y1="120.96" x2="720.1" y2="125.69"/><line class="cls-37" x1="717.74" y1="123.33" x2="722.47" y2="123.33"/><line class="cls-37" x1="703.02" y1="120.96" x2="703.02" y2="125.69"/><line class="cls-37" x1="700.66" y1="123.33" x2="705.39" y2="123.33"/><line class="cls-37" x1="685.94" y1="120.96" x2="685.94" y2="125.69"/><line class="cls-37" x1="683.58" y1="123.33" x2="688.3" y2="123.33"/><line class="cls-37" x1="737.18" y1="137.65" x2="737.18" y2="142.38"/><line class="cls-37" x1="734.82" y1="140.01" x2="739.55" y2="140.01"/><line class="cls-37" x1="720.1" y1="137.65" x2="720.1" y2="142.38"/><line class="cls-37" x1="717.74" y1="140.01" x2="722.47" y2="140.01"/><line class="cls-37" x1="703.02" y1="137.65" x2="703.02" y2="142.38"/><line class="cls-37" x1="700.66" y1="140.01" x2="705.39" y2="140.01"/><line class="cls-37" x1="685.94" y1="137.65" x2="685.94" y2="142.38"/><line class="cls-37" x1="683.58" y1="140.01" x2="688.3" y2="140.01"/><line class="cls-37" x1="737.18" y1="154.33" x2="737.18" y2="159.06"/><line class="cls-37" x1="734.82" y1="156.69" x2="739.55" y2="156.69"/><line class="cls-37" x1="720.1" y1="154.33" x2="720.1" y2="159.06"/><line class="cls-37" x1="717.74" y1="156.69" x2="722.47" y2="156.69"/><line class="cls-37" x1="703.02" y1="154.33" x2="703.02" y2="159.06"/><line class="cls-37" x1="700.66" y1="156.69" x2="705.39" y2="156.69"/><line class="cls-37" x1="685.94" y1="154.33" x2="685.94" y2="159.06"/><line class="cls-37" x1="683.58" y1="156.69" x2="688.3" y2="156.69"/><line class="cls-37" x1="579.09" y1="447.07" x2="579.09" y2="452.91"/><line class="cls-37" x1="576.17" y1="449.99" x2="582.01" y2="449.99"/><line class="cls-37" x1="558.01" y1="447.07" x2="558.01" y2="452.91"/><line class="cls-37" x1="555.09" y1="449.99" x2="560.93" y2="449.99"/><line class="cls-37" x1="536.92" y1="447.07" x2="536.92" y2="452.91"/><line class="cls-37" x1="534.01" y1="449.99" x2="539.84" y2="449.99"/><line class="cls-37" x1="515.84" y1="447.07" x2="515.84" y2="452.91"/><line class="cls-37" x1="512.92" y1="449.99" x2="518.76" y2="449.99"/><line class="cls-37" x1="579.09" y1="467.66" x2="579.09" y2="473.5"/><line class="cls-37" x1="576.17" y1="470.58" x2="582.01" y2="470.58"/><line class="cls-37" x1="558.01" y1="467.66" x2="558.01" y2="473.5"/><line class="cls-37" x1="555.09" y1="470.58" x2="560.93" y2="470.58"/><line class="cls-37" x1="536.92" y1="467.66" x2="536.92" y2="473.5"/><line class="cls-37" x1="534.01" y1="470.58" x2="539.84" y2="470.58"/><line class="cls-37" x1="515.84" y1="467.66" x2="515.84" y2="473.5"/><line class="cls-37" x1="512.92" y1="470.58" x2="518.76" y2="470.58"/><line class="cls-37" x1="579.09" y1="488.25" x2="579.09" y2="494.09"/><line class="cls-37" x1="576.17" y1="491.17" x2="582.01" y2="491.17"/><line class="cls-37" x1="558.01" y1="488.25" x2="558.01" y2="494.09"/><line class="cls-37" x1="555.09" y1="491.17" x2="560.93" y2="491.17"/><line class="cls-37" x1="536.92" y1="488.25" x2="536.92" y2="494.09"/><line class="cls-37" x1="534.01" y1="491.17" x2="539.84" y2="491.17"/><line class="cls-37" x1="515.84" y1="488.25" x2="515.84" y2="494.09"/><line class="cls-37" x1="512.92" y1="491.17" x2="518.76" y2="491.17"/><line class="cls-37" x1="579.09" y1="508.84" x2="579.09" y2="514.68"/><line class="cls-37" x1="576.17" y1="511.76" x2="582.01" y2="511.76"/><line class="cls-37" x1="558.01" y1="508.84" x2="558.01" y2="514.68"/><line class="cls-37" x1="555.09" y1="511.76" x2="560.93" y2="511.76"/><line class="cls-37" x1="536.92" y1="508.84" x2="536.92" y2="514.68"/><line class="cls-37" x1="534.01" y1="511.76" x2="539.84" y2="511.76"/><line class="cls-37" x1="515.84" y1="508.84" x2="515.84" y2="514.68"/><line class="cls-37" x1="512.92" y1="511.76" x2="518.76" y2="511.76"/><path class="cls-38" d="M1003.49,68.59a.7.7,0,0,1,.79.78v3.49a.7.7,0,0,1-.79.78H983.84c-1.79,0-2.4.7-2.4,2v.66c0,1.17.61,1.87,2.4,1.87h14.68c4.88,0,6.8,2.09,6.8,5.84v2.44c0,3.84-1.7,6.1-6.84,6.1H976.17a.69.69,0,0,1-.79-.78V88.24a.69.69,0,0,1,.79-.78h20.65c1.79,0,2.44-.61,2.44-2.09V84.19c0-1.13-.65-1.83-2.44-1.83H982.18c-4.88,0-6.8-2-6.8-5.88V74.56c0-3.62,1.7-6,6.84-6Z"/><path class="cls-38" d="M1014.37,59.74a.83.83,0,0,1,1,1v4.14c0,.65-.3,1-1,1h-4.28a.9.9,0,0,1-1-1V60.7c0-.65.35-1,1-1Zm0,8.85c.65,0,1,.35,1,1v22c0,.66-.3,1-1,1h-4.28c-.65,0-1-.3-1-1v-22c0-.65.3-1,1-1Z"/><path class="cls-38" d="M1041.23,86.33H1032c-4.48,0-5.79-1.35-5.79-6V63a.83.83,0,0,0-1-1h-4.7c-.66,0-1,.31-1,1V81c0,8.36,3.41,11.5,12.2,11.5h14.07A23.92,23.92,0,0,1,1041.23,86.33Z"/><path class="cls-38" d="M1100.41,68.59c7.88,0,10.37,2.53,10.37,8.8V93.25c0,6.37-2.49,8.89-10.37,8.89h-20.53a.69.69,0,0,1-.78-.78V97.7a.7.7,0,0,1,.78-.79h19.92c3.79,0,4.79-1.13,4.79-4.83V90.94H1088.2c-7.84,0-10.37-2.52-10.37-8.89V77.48c0-6.36,2.53-8.89,10.37-8.89Zm-11.6,17.52h15.78V78c0-3.1-1-4.23-4.79-4.23h-11c-3.74,0-4.74,1.13-4.74,4.1V82C1084.07,85,1085.07,86.11,1088.81,86.11Z"/><path class="cls-38" d="M1119.93,59.74a.84.84,0,0,1,1,1v4.14c0,.65-.3,1-1,1h-4.27a.9.9,0,0,1-1-1V60.7c0-.65.35-1,1-1Zm0,8.85c.66,0,1,.35,1,1v22a.83.83,0,0,1-1,1h-4.27a.84.84,0,0,1-1-1v-22c0-.65.31-1,1-1Z"/><path class="cls-38" d="M1147.65,68.59c7.84,0,10.37,2.53,10.37,8.84V91.55a.84.84,0,0,1-1,1h-4.27a.84.84,0,0,1-1-1V78.92c0-3.66-.74-4.8-4.49-4.8h-11.59c-3.75,0-4.75,1.14-4.75,4.8V91.55a.83.83,0,0,1-1,1h-4.27c-.65,0-1-.3-1-1V77.43c0-6.31,2.53-8.84,10.37-8.84Z"/><path class="cls-38" d="M1072.41,63.84a33.13,33.13,0,0,1-5-1.33,36.93,36.93,0,0,1-4-1.68,29.56,29.56,0,0,1-3.46-2,3.7,3.7,0,0,0-4.26,0,27.93,27.93,0,0,1-3.47,2,38.68,38.68,0,0,1-4,1.68,33.25,33.25,0,0,1-5,1.33,3.69,3.69,0,0,0-3.05,3.63v4c0,.2,0,.39,0,.58h6.07c0-.19,0-.38,0-.58V69.41a39.75,39.75,0,0,0,4-1.16,48.51,48.51,0,0,0,4.69-2c1.2-.6,2.18-1.16,2.91-1.59.73.43,1.71,1,2.92,1.59a45.39,45.39,0,0,0,4.68,2,40.34,40.34,0,0,0,4,1.16v2.08a24,24,0,0,1-2,10.16,16.07,16.07,0,0,1-4.19,5.58,15.55,15.55,0,0,1-4.16,2.52c-.54.22-1,.36-1.29.45-.3-.09-.75-.23-1.29-.45a15.43,15.43,0,0,1-8-7.37h-6.62c.22.61.47,1.22.73,1.8a23.09,23.09,0,0,0,1.13,2.15,21.37,21.37,0,0,0,4.66,5.52c.27.23.55.45.81.66a21.84,21.84,0,0,0,5,2.87,16.11,16.11,0,0,0,2.88.9,3.22,3.22,0,0,0,.69.06,2.9,2.9,0,0,0,.66-.06,16,16,0,0,0,2.91-.9,21.84,21.84,0,0,0,5.82-3.53,22.19,22.19,0,0,0,5.78-7.67,30.47,30.47,0,0,0,2.52-12.69v-4A3.69,3.69,0,0,0,1072.41,63.84Z"/><path class="cls-38" d="M1063.85,76.62l-9-5.22a.71.71,0,0,0-1.06.61v2.26h-16.68a.68.68,0,0,0-.69.68v4.56a.69.69,0,0,0,.69.68h16.68v2.26a.71.71,0,0,0,1.06.61l9-5.22A.7.7,0,0,0,1063.85,76.62Z"/><path class="cls-38" d="M979.42,107.09a1,1,0,0,1,1,.67l2.91,5.28c.06.12,0,.21-.11.21h-1.11a.19.19,0,0,1-.21-.12l-.62-1.13h-4.13l-.61,1.13a.19.19,0,0,1-.2.12h-1.14c-.15,0-.18-.09-.12-.21l2.89-5.28c.29-.53.55-.67.92-.67ZM977.71,111h3l-1.4-2.58s-.05-.06-.1-.06h0c-.05,0-.07,0-.1.06Z"/><path class="cls-38" d="M989.62,108.42a.14.14,0,0,1,.16.16v.7a.14.14,0,0,1-.16.16h-4c-.36,0-.49.14-.49.4V110c0,.24.13.38.49.38h3c1,0,1.37.42,1.37,1.17v.5c0,.77-.34,1.23-1.38,1.23h-4.5a.14.14,0,0,1-.16-.16v-.7a.14.14,0,0,1,.16-.16h4.17c.36,0,.49-.13.49-.42v-.24c0-.23-.13-.37-.49-.37h-3c-1,0-1.37-.41-1.37-1.19v-.39c0-.72.34-1.2,1.38-1.2Z"/><path class="cls-38" d="M992,108.42c.13,0,.19.07.19.2v2.54c0,.74.14,1,.9,1h2.26c.77,0,1-.23,1-1v-2.54c0-.13.06-.2.19-.2h.87c.13,0,.19.07.19.2v2.85c0,1.28-.51,1.78-2.09,1.78H993c-1.58,0-2.09-.5-2.09-1.78v-2.85a.18.18,0,0,1,.2-.2Z"/><path class="cls-38" d="M1003.16,108.42a.14.14,0,0,1,.16.16v.74a.14.14,0,0,1-.16.16h-2.33c-.76,0-1,.22-1,1v2.61c0,.14-.06.2-.2.2h-.86a.18.18,0,0,1-.2-.2v-2.84c0-1.28.51-1.79,2.09-1.79Z"/><path class="cls-38" d="M1007.93,108.42c1.58,0,2.09.51,2.09,1.79v2.33c0,.58-.14.71-.65.71h-4.19c-1,0-1.35-.38-1.35-1.25v-.42c0-.74.32-1.16,1.35-1.16h3.58v-.16c0-.56-.19-.78-1-.78h-3.67a.14.14,0,0,1-.16-.16v-.74a.14.14,0,0,1,.16-.16Zm.83,3.56v-.77h-3.21c-.37,0-.5.15-.5.43v.18c0,.32.13.46.5.46h3C1008.69,112.28,1008.76,112.2,1008.76,112Z"/><path class="cls-38" d="M1015.55,108.42c1.58,0,2.09.51,2.09,1.79v2.84c0,.14-.06.2-.19.2h-.87c-.13,0-.19-.06-.19-.2V110.5c0-.73-.15-1-.9-1h-2.34c-.76,0-1,.23-1,1v2.55c0,.14-.06.2-.19.2h-.87a.18.18,0,0,1-.2-.2v-2.84c0-1.28.51-1.79,2.09-1.79Z"/><path class="cls-38" d="M1024.29,108.42a.14.14,0,0,1,.16.16v.7a.14.14,0,0,1-.16.16h-4c-.36,0-.49.14-.49.4V110c0,.24.13.38.49.38h3c1,0,1.37.42,1.37,1.17v.5c0,.77-.34,1.23-1.38,1.23h-4.5a.15.15,0,0,1-.16-.16v-.7a.14.14,0,0,1,.16-.16H1023c.36,0,.49-.13.49-.42v-.24c0-.23-.13-.37-.49-.37h-3c-1,0-1.37-.41-1.37-1.19v-.39c0-.72.35-1.2,1.38-1.2Z"/><path class="cls-38" d="M1026.67,106.64c.13,0,.2.06.2.19v.83a.18.18,0,0,1-.2.21h-.86a.18.18,0,0,1-.2-.21v-.83c0-.13.07-.19.2-.19Zm0,1.78a.18.18,0,0,1,.2.2v4.43a.18.18,0,0,1-.2.2h-.86c-.13,0-.19-.06-.19-.2v-4.43c0-.13.06-.2.19-.2Z"/><path class="cls-38" d="M1035.4,108.42c1.21,0,1.52.38,1.52,1.44v.84c0,.38-.16.5-.5.5H1032v.21c0,.55.2.78,1,.78h3.66a.14.14,0,0,1,.16.16v.74a.14.14,0,0,1-.16.16h-3.78c-1.59,0-2.1-.5-2.1-1.78v-1.26c0-1.28.51-1.79,2.1-1.79Zm-3.42,2h3.56c.11,0,.15,0,.15-.15v-.37c0-.36-.13-.5-.54-.5H1033c-.77,0-1,.22-1,.78Z"/><path class="cls-38" d="M1040.3,109.75a.14.14,0,0,1,.16.16v.63a.14.14,0,0,1-.16.16h-2.64a.14.14,0,0,1-.16-.16v-.63a.14.14,0,0,1,.16-.16Z"/><path class="cls-38" d="M1047.6,107.09c.13,0,.19.06.19.2v.86c0,.13-.06.2-.19.2h-3.91c-.91,0-1.17.26-1.17,1.2v1.24c0,.94.26,1.21,1.17,1.21h3.91a.17.17,0,0,1,.19.19v.86c0,.14-.06.2-.19.2h-4c-1.78,0-2.47-.64-2.47-2.32v-1.52c0-1.68.69-2.32,2.47-2.32Z"/><path class="cls-38" d="M1052.61,108.42c1.58,0,2.09.51,2.09,1.79v2.33c0,.58-.14.71-.65.71h-4.18c-1,0-1.36-.38-1.36-1.25v-.42c0-.74.32-1.16,1.36-1.16h3.57v-.16c0-.56-.19-.78-1-.78h-3.68a.14.14,0,0,1-.16-.16v-.74a.14.14,0,0,1,.16-.16Zm.83,3.56v-.77h-3.21c-.36,0-.5.15-.5.43v.18c0,.32.14.46.5.46h3C1053.37,112.28,1053.44,112.2,1053.44,112Z"/><path class="cls-38" d="M1056.23,108.42v-1.16a.17.17,0,0,1,.19-.19h.87c.13,0,.2.06.2.19v1.16H1059c.12,0,.16,0,.16.16v.72c0,.11,0,.16-.16.16h-1.53v2c0,.48.15.71.73.71h.86a.14.14,0,0,1,.16.16v.72a.14.14,0,0,1-.16.16H1058c-1.4,0-1.78-.5-1.78-1.75v-2h-.84c-.1,0-.15,0-.15-.16v-.72c0-.11,0-.16.15-.16Z"/><path class="cls-38" d="M1063.85,108.42c1.58,0,2.09.51,2.09,1.79v2.33c0,.58-.14.71-.65.71h-4.18c-1,0-1.36-.38-1.36-1.25v-.42c0-.74.32-1.16,1.36-1.16h3.57v-.16c0-.56-.19-.78-1-.78h-3.68a.14.14,0,0,1-.16-.16v-.74a.14.14,0,0,1,.16-.16Zm.83,3.56v-.77h-3.21c-.36,0-.5.15-.5.43v.18c0,.32.14.46.5.46h3C1064.61,112.28,1064.68,112.2,1064.68,112Z"/><path class="cls-38" d="M1067.94,106.65a.18.18,0,0,1,.2.2v6.2c0,.14-.06.2-.2.2h-.86c-.13,0-.19-.06-.19-.2v-6.2c0-.13.06-.2.19-.2Z"/><path class="cls-38" d="M1073.75,108.42c1.59,0,2.1.51,2.1,1.79v1.26c0,1.28-.51,1.78-2.1,1.78h-2.48c-1.59,0-2.1-.5-2.1-1.78v-1.26c0-1.28.51-1.79,2.1-1.79Zm-3.32,2.83c0,.74.2,1,1,1h2.24c.77,0,1-.23,1-1v-.83c0-.74-.2-1-1-1h-2.24c-.76,0-1,.22-1,1Z"/><path class="cls-38" d="M1081.36,108.42c1.59,0,2.09.51,2.09,1.78v3.2c0,1.28-.5,1.79-2.09,1.79h-4.14a.14.14,0,0,1-.16-.16v-.74a.14.14,0,0,1,.16-.16h4c.77,0,1-.22,1-1v-.23h-3.31c-1.58,0-2.09-.51-2.09-1.79v-.93c0-1.28.51-1.79,2.09-1.79ZM1079,112h3.18v-1.64c0-.62-.2-.85-1-.85H1079c-.76,0-1,.23-1,.82v.85C1078.06,111.73,1078.26,112,1079,112Z"/><path class="cls-38" d="M1085.57,108.42a.18.18,0,0,1,.2.2v2.54c0,.74.14,1,.9,1h2.26c.77,0,1-.23,1-1v-2.54c0-.13.06-.2.19-.2h.86a.18.18,0,0,1,.2.2v2.85c0,1.28-.51,1.78-2.09,1.78h-2.46c-1.58,0-2.09-.5-2.09-1.78v-2.85a.18.18,0,0,1,.2-.2Z"/><path class="cls-38" d="M1096.71,108.42c1.2,0,1.52.38,1.52,1.44v.84c0,.38-.16.5-.5.5h-4.44v.21c0,.55.2.78,1,.78h3.66a.14.14,0,0,1,.16.16v.74a.14.14,0,0,1-.16.16h-3.79c-1.58,0-2.09-.5-2.09-1.78v-1.26c0-1.28.51-1.79,2.09-1.79Zm-3.42,2h3.56c.11,0,.15,0,.15-.15v-.37c0-.36-.13-.5-.54-.5h-2.2c-.77,0-1,.22-1,.78Z"/><path class="cls-38" d="M1103.29,107.09a.18.18,0,0,1,.2.2v5.76a.18.18,0,0,1-.2.2h-1a.18.18,0,0,1-.2-.2v-5.76a.18.18,0,0,1,.2-.2Z"/><path class="cls-38" d="M1109.22,108.42c1.58,0,2.09.51,2.09,1.79v2.84c0,.14-.06.2-.2.2h-.86c-.13,0-.19-.06-.19-.2V110.5c0-.73-.15-1-.91-1h-2.33c-.76,0-1,.23-1,1v2.55c0,.14-.06.2-.2.2h-.86a.18.18,0,0,1-.2-.2v-2.84c0-1.28.51-1.79,2.09-1.79Z"/><path class="cls-38" d="M1117.72,108.42v-1.57c0-.13.06-.2.19-.2h.86c.13,0,.19.07.19.2v4.62c0,1.28-.51,1.78-2.09,1.78h-2.46c-1.58,0-2.09-.5-2.09-1.78v-1.26c0-1.28.51-1.79,2.09-1.79Zm0,2.8v-1.74h-3.19c-.75,0-1,.22-1,1v.78c0,.74.21,1,1,1h2.22C1117.51,112.19,1117.72,112,1117.72,111.22Z"/><path class="cls-38" d="M1124.55,108.42c1.58,0,2.09.51,2.09,1.79v1.26c0,1.28-.51,1.78-2.09,1.78h-2.49c-1.58,0-2.09-.5-2.09-1.78v-1.26c0-1.28.51-1.79,2.09-1.79Zm-3.32,2.83c0,.74.2,1,1,1h2.24c.76,0,1-.23,1-1v-.83c0-.74-.21-1-1-1h-2.24c-.76,0-1,.22-1,1Z"/><path class="cls-38" d="M1132.27,108.42c1.58,0,2.09.51,2.09,1.79v2.84c0,.14-.06.2-.19.2h-.86c-.14,0-.2-.06-.2-.2V110.5c0-.73-.15-1-.9-1h-2.34c-.76,0-1,.23-1,1v2.55c0,.14-.06.2-.19.2h-.86c-.14,0-.21-.06-.21-.2v-2.84c0-1.28.51-1.79,2.1-1.79Z"/><path class="cls-38" d="M1139.92,108.42c1.21,0,1.52.38,1.52,1.44v.84c0,.38-.15.5-.5.5h-4.44v.21c0,.55.21.78,1,.78h3.67a.14.14,0,0,1,.16.16v.74a.15.15,0,0,1-.16.16h-3.79c-1.58,0-2.09-.5-2.09-1.78v-1.26c0-1.28.51-1.79,2.09-1.79Zm-3.42,2h3.56c.11,0,.15,0,.15-.15v-.37c0-.36-.13-.5-.53-.5h-2.21c-.76,0-1,.22-1,.78Z"/><path class="cls-38" d="M1148,108.42a.14.14,0,0,1,.16.16v.7a.14.14,0,0,1-.16.16h-4c-.36,0-.48.14-.48.4V110c0,.24.12.38.48.38h3c1,0,1.37.42,1.37,1.17v.5c0,.77-.35,1.23-1.38,1.23h-4.5a.14.14,0,0,1-.16-.16v-.7a.14.14,0,0,1,.16-.16h4.16c.36,0,.5-.13.5-.42v-.24c0-.23-.14-.37-.5-.37h-2.95c-1,0-1.37-.41-1.37-1.19v-.39c0-.72.34-1.2,1.38-1.2Z"/><path class="cls-38" d="M1150.33,106.64a.17.17,0,0,1,.19.19v.83c0,.14-.06.21-.19.21h-.86a.19.19,0,0,1-.21-.21v-.83c0-.13.08-.19.21-.19Zm0,1.78c.13,0,.19.07.19.2v4.43c0,.14-.06.2-.19.2h-.86a.18.18,0,0,1-.2-.2v-4.43a.18.18,0,0,1,.2-.2Z"/><path class="cls-38" d="M1155.54,108.42c1.58,0,2.09.51,2.09,1.79v2.33c0,.58-.14.71-.65.71h-4.18c-1,0-1.36-.38-1.36-1.25v-.42c0-.74.32-1.16,1.36-1.16h3.58v-.16c0-.56-.2-.78-1-.78h-3.68c-.1,0-.15,0-.15-.16v-.74c0-.11.05-.16.15-.16Zm.84,3.56v-.77h-3.22c-.36,0-.49.15-.49.43v.18c0,.32.13.46.49.46h3C1156.31,112.28,1156.38,112.2,1156.38,112Z"/><path class="cls-38" d="M109.09,238.65a5,5,0,0,0-1.33-4.57c-1.17-1.11-3.4-2.21-6.67-3.3q-6.72-2.13-9.86-5.19t-2.33-8.4a10.67,10.67,0,0,1,4.83-7.59,17.58,17.58,0,0,1,10-2.74q6.75,0,10.51,3.34t2.75,9.18l-.06.17h-6.57a5.73,5.73,0,0,0-1.6-5.19,8,8,0,0,0-5.87-2,8.4,8.4,0,0,0-4.84,1.38,4.9,4.9,0,0,0-2.32,3.43q-.48,3,1.21,4.48t7.16,3.38q6.6,2.13,9.57,5.17t2.2,8.42A10.55,10.55,0,0,1,111,246.3a18.86,18.86,0,0,1-10.31,2.62,19.52,19.52,0,0,1-11.15-3q-4.52-3-3.39-9.48l0-.17h6.55q-.6,4,2.09,5.6a12.52,12.52,0,0,0,6.67,1.65,9.42,9.42,0,0,0,5-1.36A5,5,0,0,0,109.09,238.65Z"/><path class="cls-38" d="M132.54,248.92q-6.4,0-9.66-4.24t-2.25-10.84l.17-1.12a18.9,18.9,0,0,1,5.39-11.15,14.24,14.24,0,0,1,10.34-4.18q5.86,0,8.56,3.82c1.8,2.54,2.39,5.9,1.77,10l-.53,3.68h-19a9.59,9.59,0,0,0,1.16,6.25c1,1.52,2.77,2.29,5.28,2.29a16.4,16.4,0,0,0,4.88-.69,16.21,16.21,0,0,0,4.1-1.92l1.55,4.46a17.65,17.65,0,0,1-5,2.56A20.71,20.71,0,0,1,132.54,248.92Zm3.17-26.06a6.14,6.14,0,0,0-4.46,1.94,11.19,11.19,0,0,0-2.81,5l.05.17h11.83l.08-.53a7,7,0,0,0-.64-4.79C139,223.45,137.68,222.86,135.71,222.86Z"/><path class="cls-38" d="M157.11,248.33h-6.82l6.57-43.8h6.82Z"/><path class="cls-38" d="M183.06,248.33a20,20,0,0,1-.27-2.2,15.1,15.1,0,0,1,0-2.23,15.19,15.19,0,0,1-4.23,3.58,10.61,10.61,0,0,1-5.35,1.44q-4.57,0-6.84-2.47c-1.51-1.64-2-3.87-1.61-6.68a9.4,9.4,0,0,1,4.48-7q3.8-2.37,10.2-2.37h5.31l.39-2.67a4.4,4.4,0,0,0-.81-3.78,5,5,0,0,0-3.85-1.3,6.47,6.47,0,0,0-3.84,1.12,4,4,0,0,0-1.83,2.86l-6.54,0-.06-.17c.24-2.49,1.63-4.63,4.16-6.44a15.56,15.56,0,0,1,9.32-2.71q5.14,0,8.07,2.72c2,1.82,2.69,4.39,2.21,7.72l-2.05,13.51a25.53,25.53,0,0,0-.28,3.65,17.74,17.74,0,0,0,.31,3.34Zm-7.61-4.88a9.47,9.47,0,0,0,4.77-1.32,8.21,8.21,0,0,0,3.23-3l.67-4.43h-5.41a7.78,7.78,0,0,0-4.83,1.48,5.4,5.4,0,0,0-2.28,3.46,3.07,3.07,0,0,0,.7,2.79A4.27,4.27,0,0,0,175.45,243.45Z"/><path class="cls-38" d="M206.59,221.77a12.19,12.19,0,0,1,9.6-4.38,8.26,8.26,0,0,1,4.79,1.33,6.81,6.81,0,0,1,2.68,4,13.12,13.12,0,0,1,4.3-3.91,11.32,11.32,0,0,1,5.65-1.42,7.63,7.63,0,0,1,6.68,3.21q2.25,3.22,1.29,9.62l-2.72,18.11H232l2.73-18.14q.59-4.16-.49-5.68a4.32,4.32,0,0,0-3.78-1.53,6.36,6.36,0,0,0-3.83,1.22,8.54,8.54,0,0,0-2.71,3.24l-.15,1.21-2.94,19.68H214l2.73-18.14q.59-4-.52-5.6a4.27,4.27,0,0,0-3.78-1.61,7.49,7.49,0,0,0-3.61.85,8,8,0,0,0-2.68,2.38l-3.31,22.12H196L200.58,218h6.23Z"/><path class="cls-38" d="M264.36,248.33a17.86,17.86,0,0,1-.27-2.2,16.6,16.6,0,0,1,0-2.23,15,15,0,0,1-4.22,3.58,10.61,10.61,0,0,1-5.35,1.44q-4.58,0-6.84-2.47t-1.62-6.68a9.43,9.43,0,0,1,4.48-7q3.81-2.37,10.21-2.37h5.31l.39-2.67a4.43,4.43,0,0,0-.81-3.78,5,5,0,0,0-3.85-1.3,6.53,6.53,0,0,0-3.85,1.12,4.06,4.06,0,0,0-1.82,2.86l-6.55,0-.05-.17c.24-2.49,1.63-4.63,4.15-6.44a15.62,15.62,0,0,1,9.33-2.71q5.13,0,8.07,2.72c2,1.82,2.69,4.39,2.21,7.72l-2.05,13.51A25.53,25.53,0,0,0,271,245a18.61,18.61,0,0,0,.3,3.34Zm-7.61-4.88a9.49,9.49,0,0,0,4.77-1.32,8.28,8.28,0,0,0,3.23-3l.67-4.43H260a7.78,7.78,0,0,0-4.83,1.48,5.38,5.38,0,0,0-2.27,3.46,3,3,0,0,0,.7,2.79A4.25,4.25,0,0,0,256.75,243.45Z"/><path class="cls-38" d="M291.74,210.56,290.61,218h5.45L295.3,223h-5.45l-2.5,16.8c-.22,1.31-.1,2.22.37,2.72a2.68,2.68,0,0,0,2.08.76,5.89,5.89,0,0,0,1.09-.1,7,7,0,0,0,1.07-.26l0,5a8.83,8.83,0,0,1-2.16.75,11.81,11.81,0,0,1-2.53.26,6.79,6.79,0,0,1-5.52-2.23c-1.24-1.49-1.63-3.78-1.16-6.89l2.5-16.8h-4.64l.76-5.05h4.64l1.12-7.39Z"/><path class="cls-38" d="M312,248.33l6.12-40.88h13.51q7.47,0,11.77,4.9t3.17,12.45l-.93,6.21a19.56,19.56,0,0,1-20.13,17.32Zm12.13-35.41-4.49,30h6.68a11.42,11.42,0,0,0,8.2-3.37,14.77,14.77,0,0,0,4.3-8.51l.92-6.26c.53-3.58,0-6.44-1.58-8.6s-4-3.23-7.35-3.23Z"/><path class="cls-38" d="M368.18,248.33a16.12,16.12,0,0,1-.27-2.2,16.6,16.6,0,0,1,0-2.23,15,15,0,0,1-4.22,3.58,10.61,10.61,0,0,1-5.35,1.44c-3.06,0-5.33-.82-6.84-2.47s-2.05-3.87-1.62-6.68a9.43,9.43,0,0,1,4.48-7q3.81-2.37,10.21-2.37h5.31l.39-2.67a4.47,4.47,0,0,0-.81-3.78,5,5,0,0,0-3.85-1.3,6.53,6.53,0,0,0-3.85,1.12,4.06,4.06,0,0,0-1.82,2.86l-6.55,0,0-.17c.24-2.49,1.63-4.63,4.15-6.44a15.62,15.62,0,0,1,9.33-2.71q5.13,0,8.07,2.72t2.2,7.72l-2,13.51a25.62,25.62,0,0,0-.29,3.65,18.61,18.61,0,0,0,.31,3.34Zm-7.62-4.88a9.5,9.5,0,0,0,4.78-1.32,8.28,8.28,0,0,0,3.23-3l.67-4.43h-5.42A7.78,7.78,0,0,0,359,236.2a5.38,5.38,0,0,0-2.27,3.46,3,3,0,0,0,.7,2.79A4.23,4.23,0,0,0,360.56,243.45Z"/><path class="cls-38" d="M395.56,210.56,394.43,218h5.45l-.76,5.05h-5.45l-2.5,16.8c-.22,1.31-.1,2.22.37,2.72a2.68,2.68,0,0,0,2.08.76,5.89,5.89,0,0,0,1.09-.1,7,7,0,0,0,1.07-.26l0,5a8.83,8.83,0,0,1-2.16.75,11.81,11.81,0,0,1-2.53.26,6.79,6.79,0,0,1-5.52-2.23c-1.24-1.49-1.63-3.78-1.16-6.89l2.5-16.8h-4.64L383,218h4.64l1.12-7.39Z"/><path class="cls-38" d="M419.14,248.33a17.85,17.85,0,0,1-.26-2.2,16.6,16.6,0,0,1,0-2.23,15,15,0,0,1-4.22,3.58,10.61,10.61,0,0,1-5.35,1.44q-4.59,0-6.84-2.47t-1.62-6.68a9.4,9.4,0,0,1,4.48-7q3.81-2.37,10.21-2.37h5.31l.39-2.67a4.47,4.47,0,0,0-.81-3.78,5,5,0,0,0-3.85-1.3,6.53,6.53,0,0,0-3.85,1.12,4,4,0,0,0-1.82,2.86l-6.55,0-.05-.17c.24-2.49,1.63-4.63,4.15-6.44a15.62,15.62,0,0,1,9.33-2.71q5.13,0,8.07,2.72t2.2,7.72L426,241.34a27.07,27.07,0,0,0-.28,3.65,18.61,18.61,0,0,0,.31,3.34Zm-7.61-4.88a9.5,9.5,0,0,0,4.78-1.32,8.28,8.28,0,0,0,3.23-3l.67-4.43h-5.42A7.78,7.78,0,0,0,410,236.2a5.38,5.38,0,0,0-2.27,3.46,3,3,0,0,0,.7,2.79A4.23,4.23,0,0,0,411.53,243.45Z"/><path class="cls-38" d="M442.59,222.16a13.45,13.45,0,0,1,4.3-3.52,11.47,11.47,0,0,1,5.28-1.25q4.57,0,6.87,3t1.39,9.1l-2.84,18.89h-6.82l2.83-18.84q.54-3.68-.6-5.09c-.76-1-2.09-1.42-4-1.42a8.47,8.47,0,0,0-3.84.85,9.19,9.19,0,0,0-3,2.4l-3.31,22.1h-6.83L436.61,218h6.24Z"/><path class="cls-38" d="M465.85,233.56Q467,226,470.7,221.71a12,12,0,0,1,9.44-4.32,8.2,8.2,0,0,1,4.53,1.22,8.71,8.71,0,0,1,3.05,3.47L489,218h5.68l-4.55,30.38q-.93,6.1-5,9.19t-10.79,3.09a19.24,19.24,0,0,1-4.67-.63,18.43,18.43,0,0,1-4.4-1.68l1.88-5.36a14.9,14.9,0,0,0,3.7,1.36,18.72,18.72,0,0,0,4.33.49,8.66,8.66,0,0,0,5.58-1.61,7.36,7.36,0,0,0,2.51-4.85l.45-3.11A11.36,11.36,0,0,1,480,248a11.06,11.06,0,0,1-4.62.94,8.79,8.79,0,0,1-8-4.11q-2.61-4.11-1.63-10.66Zm6.71.59c-.45,2.91-.26,5.17.59,6.79s2.44,2.42,4.8,2.42a7.44,7.44,0,0,0,3.76-.94,8.83,8.83,0,0,0,2.89-2.68l2-13.2a5.63,5.63,0,0,0-2.05-2.62A6.08,6.08,0,0,0,481,223a6.61,6.61,0,0,0-5.55,3,16.83,16.83,0,0,0-2.85,7.61Z"/><path class="cls-38" d="M512.55,233.56q1.11-7.51,4.85-11.85a12,12,0,0,1,9.44-4.32,8.2,8.2,0,0,1,4.21,1.05,8.53,8.53,0,0,1,3,3l2.55-16.9h6.83l-6.57,43.8H531.3l-.22-3.84a12.9,12.9,0,0,1-4,3.3,10.84,10.84,0,0,1-5,1.13,8.8,8.8,0,0,1-8-4.11q-2.61-4.11-1.63-10.66Zm6.74.59q-.67,4.36.57,6.79t4.79,2.42a7.38,7.38,0,0,0,3.73-.94,9,9,0,0,0,2.9-2.68l2-13.2a5.74,5.74,0,0,0-2.08-2.62,6,6,0,0,0-3.45-.94,6.59,6.59,0,0,0-5.52,3,16.83,16.83,0,0,0-2.85,7.61Z"/><path class="cls-38" d="M551.44,248.33h-6.82L549.16,218H556Zm5.67-37.82h-6.82l.9-6H558Z"/><path class="cls-38" d="M170.09,290.43a2,2,0,0,1,2.25,2.24v10a2,2,0,0,1-2.25,2.25H113.82c-5.11,0-6.86,2-6.86,5.61v1.88c0,3.36,1.75,5.36,6.86,5.36h42.05c14,0,19.46,6,19.46,16.72v7c0,11-4.86,17.47-19.58,17.47H91.86a2,2,0,0,1-2.24-2.25v-10a2,2,0,0,1,2.24-2.25H151c5.12,0,7-1.74,7-6v-3.37c0-3.24-1.87-5.24-7-5.24H109.08c-14,0-19.46-5.86-19.46-16.84v-5.49c0-10.36,4.86-17.09,19.59-17.09Z"/><path class="cls-38" d="M203.91,265.1c1.87,0,2.74.87,2.74,2.74V279.7c0,1.87-.87,2.87-2.74,2.87H191.68a2.57,2.57,0,0,1-2.87-2.87V267.84c0-1.87,1-2.74,2.87-2.74Zm0,25.33c1.87,0,2.74,1,2.74,2.87v62.88c0,1.87-.87,2.75-2.74,2.75H191.68c-1.87,0-2.74-.88-2.74-2.75V293.3c0-1.88.87-2.87,2.74-2.87Z"/><path class="cls-38" d="M239,271.59c1.87,0,2.74.87,2.74,2.74v49.78c0,13.23,3.75,17.1,16.6,17.1h50.53c1.87,0,2.75.87,2.75,2.74v12.23c0,1.87-.88,2.75-2.75,2.75H257.56c-25.2,0-34.94-9-34.94-32.94V274.33c0-1.87,1-2.74,2.87-2.74Z"/><path class="cls-38" d="M385.08,290.43c22.46,0,29.69,7.23,29.69,25.32v18c0,18.09-7.23,25.21-29.69,25.21H349.77c-22.46,0-29.7-7.12-29.7-25.21v-18c0-18.09,7.24-25.32,29.7-25.32ZM337.91,330.6c0,10.48,2.87,13.73,13.6,13.73h31.82c10.86,0,13.73-3.25,13.73-13.73V318.75c0-10.48-2.87-13.6-13.73-13.6H351.51c-10.73,0-13.6,3.12-13.6,13.6Z"/><path class="cls-38" d="M493,290.43c22.58,0,29.69,7.23,29.69,25.2v45.42c0,18.21-7.11,25.45-29.69,25.45H434.24a2,2,0,0,1-2.25-2.25V373.77a2,2,0,0,1,2.25-2.24h57c10.86,0,13.72-3.25,13.72-13.85v-3.25H458.07c-22.46,0-29.69-7.23-29.69-25.45v-13.1c0-18.22,7.23-25.45,29.69-25.45Zm-33.19,50.15H505V317.25c0-8.86-2.86-12.1-13.72-12.1H459.82c-10.73,0-13.6,3.24-13.6,11.73v12C446.22,337.34,449.09,340.58,459.82,340.58Z"/><path class="cls-38" d="M553.27,265.1c1.87,0,2.75.87,2.75,2.74V279.7c0,1.87-.88,2.87-2.75,2.87H541a2.57,2.57,0,0,1-2.87-2.87V267.84c0-1.87,1-2.74,2.87-2.74Zm0,25.33c1.87,0,2.75,1,2.75,2.87v62.88c0,1.87-.88,2.75-2.75,2.75H541c-1.87,0-2.74-.88-2.74-2.75V293.3c0-1.88.87-2.87,2.74-2.87Z"/><path class="cls-38" d="M637,290.43c22.46,0,29.7,7.23,29.7,25.32v40.43c0,1.87-.87,2.75-2.75,2.75H651.72c-1.88,0-2.75-.88-2.75-2.75V320c0-10.48-2.12-13.73-12.85-13.73H602.93c-10.73,0-13.6,3.25-13.6,13.73v36.18c0,1.87-.87,2.75-2.74,2.75H574.36c-1.87,0-2.87-.88-2.87-2.75V315.75c0-18.09,7.23-25.32,29.69-25.32Z"/><g class="cls-39"><rect class="cls-2" x="1268.07" y="-60.53" width="1247.85" height="713.06"/><g class="cls-40"><path class="cls-41" d="M1988.4-295.63c-128.25-8.51-192.58,87.78-258-14.12-19.53-30.43-31-59.05-54.6-79.26-67.53-57.69-150,40.06-214.84-7.81-41.36-30.53-98.43-85.81-188.74-52.35-46.41,17.19-68.69,55.05-97.43,100.34-60,94.55-156.53,79.73-240.65,171.09C862.37-99.81,868.24-5,936.76,49.69c78.83,62.88,169,44.89,288.52,50.84,105.3,5.25,125.15,97,212.85,169.85,60.53,50.28,137.09,46.7,207.92,13.09,92.58-43.94,132.63-105,183.1-176.44,55.76-78.94,120.1-93.33,177.22-116.62C2182.91-81.55,2126.66-286.46,1988.4-295.63Z"/><path class="cls-42" d="M2133.54-705.54c-137.91,63.68-150.23,200-275.74,131.21-37.48-20.53-65.51-43.77-101.48-51.37-102.7-21.7-133,126.38-227.38,113.36-60.18-8.29-150.67-33.4-225.47,52.38-38.45,44.09-40.17,96-44.38,159.23-8.8,132-117.37,171.25-153,313.63-30.41,121.46,29.3,216.56,131.31,234.54,117.36,20.7,200.75-48.95,328.18-110.36C1677.81,83,1750.28,167,1882.5,193c91.25,18,168.67-29.05,223.17-104,71.24-97.95,78.29-183.94,90.27-286.63,13.23-113.45,71.87-164.77,118-221.23C2456.45-593.35,2282.22-774.2,2133.54-705.54Z"/><g class="cls-19"><path class="cls-38" d="M1191.38,263.47l-1.21-.29a200.45,200.45,0,0,1,214.33-154c23.64,2.26,46.9,8.78,69.39,15.08,13.42,3.76,27.3,7.65,41.12,10.6,45.68,9.74,82.48,5.7,109.38-12,12.56-8.27,23-19.69,33.13-30.73,11.8-12.89,24-26.21,39.6-34.57,31.34-16.79,68.39-10.64,104.22-4.7l8.09,1.34c64.81,10.51,120.09,10,169-1.58,59.65-14.12,109.69-45.53,140.9-88.45,34.86-47.95,43.92-111,23.07-160.71l1.14-.48c21,50.07,11.9,113.63-23.21,161.92-31.38,43.16-81.67,74.74-141.61,88.93-49.07,11.61-104.5,12.13-169.48,1.59l-8.09-1.34c-35.63-5.91-72.47-12-103.44,4.58-15.4,8.25-27.53,21.5-39.26,34.3-10.17,11.1-20.68,22.58-33.37,30.93-27.19,17.9-64.3,22-110.31,12.19-13.86-3-27.76-6.85-41.2-10.62-22.45-6.29-45.65-12.79-69.18-15a199.21,199.21,0,0,0-213,153Z"/></g></g></g></g></g></svg>